# xmcd CD database file
#
# Track frame offsets:
#	150
#	18333
#	35576
#	49593
#	81286
#	103969
#	121435
#	147089
#	176041
#	208247
#	226958
#	256938
#	274379
#	299459
#	327330
#
# Disc length: 4654 seconds
#
# Revision: 0
# Processed by: cddbd v1.5.1PL0 Copyright (c) Steve Scherf et al.
# Submitted via: CDex 1.51
#
DISCID=e5122c0f
DTITLE=Various Artits - Blue Note: A Story of Jazz CD2
DYEAR=2005
DGENRE=Jazz
TTITLE0=St.Germain - Rose Rouge
TTITLE1=Al Green - I Can't Stop
TTITLE2=	Norah Jones - Don't Know Why
TTITLE3=Wynton Marsalis Ft.D.Reeves - Feeling of Jazz
TTITLE4=Anita Baker - You're my Everything
TTITLE5=Cassandra Wilson - Someday my Prince Will Come
TTITLE6=Jacky Terrasson - Le Jardin d'Hiver
TTITLE7=Patricia Barber - Pieces
TTITLE8=Stefano Di Battista - Round Midnight
TTITLE9=Charlie Hunter/Norah Jones - More Than This
TTITLE10=Kurt Elling - In the Winelight
TTITLE11=Eliane Elias - Garota de Ipanema
TTITLE12=Pat Martino - Earthlings
TTITLE13=Gonzalo Rubalcaba - Supernova 2
TTITLE14=Bobby McFerrin - Don't Worry, be Happy
EXTD=YEAR: 2005
EXTT0=
EXTT1=
EXTT2=
EXTT3=
EXTT4=
EXTT5=
EXTT6=
EXTT7=
EXTT8=
EXTT9=
EXTT10=
EXTT11=
EXTT12=
EXTT13=
EXTT14=
PLAYORDER=
